<?xml version="1.0" encoding="utf-8"?>
<!-- Generator: Adobe Illustrator 15.1.0, SVG Export Plug-In . SVG Version: 6.00 Build 0)  -->
<!DOCTYPE svg PUBLIC "-//W3C//DTD SVG 1.1//EN" "http://www.w3.org/Graphics/SVG/1.1/DTD/svg11.dtd">
<svg version="1.1" id="Capa_1" xmlns="http://www.w3.org/2000/svg" xmlns:xlink="http://www.w3.org/1999/xlink" x="0px" y="0px"
	 width="57.646px" height="52.567px" viewBox="2.923 5.433 57.646 52.567" enable-background="new 2.923 5.433 57.646 52.567"
	 xml:space="preserve">
<g>
	<path fill="#9EADB5" d="M4.272,35.501c0.499,0.33,1.075,0.494,1.651,0.494c0.576,0,1.152-0.165,1.651-0.494
		c0.166-0.11,0.324-0.238,0.47-0.385L10,33.16v13.699C10,52.898,15.337,58,21.654,58h21.12C48.963,58,54,53.002,54,46.859V33.67
		l1.447,1.447c0.585,0.586,1.354,0.879,2.121,0.879c0.767,0,1.535-0.293,2.121-0.879c1.172-1.171,1.172-3.071,0-4.242L35.988,7.172
		c-2.193-2.192-5.659-2.303-8.013-0.385c-0.158,0.128-0.325,0.239-0.472,0.385L3.802,30.874c-1.172,1.171-1.172,3.071,0,4.242
		C3.948,35.263,4.106,35.391,4.272,35.501z M48,27.669v19.19c0,2.834-2.345,5.14-5.227,5.14h-21.12C18.642,52,16,49.598,16,46.859
		V27.16l15.746-15.745L48,27.669z"/>
</g>
</svg>
