<?xml version="1.0" encoding="utf-8"?>
<!-- Generator: Adobe Illustrator 15.1.0, SVG Export Plug-In . SVG Version: 6.00 Build 0)  -->
<!DOCTYPE svg PUBLIC "-//W3C//DTD SVG 1.1//EN" "http://www.w3.org/Graphics/SVG/1.1/DTD/svg11.dtd">
<svg version="1.1" id="Layer_3" xmlns="http://www.w3.org/2000/svg" xmlns:xlink="http://www.w3.org/1999/xlink" x="0px" y="0px"
	 width="600px" height="600px" viewBox="0 0 600 600" enable-background="new 0 0 600 600" xml:space="preserve">
<g>
	<path fill="#FFFFFF" d="M238.822,300.874c0-6.629,2.526-13.26,7.575-18.316l159.097-159.095c10.125-10.121,26.531-10.121,36.646,0
		c10.115,10.117,10.115,26.522,0,36.644L301.365,300.875l140.772,140.764c10.115,10.118,10.115,26.53,0,36.646
		c-10.117,10.121-26.527,10.121-36.644,0L246.391,319.194C241.337,314.138,238.821,307.506,238.822,300.874z"/>
	<path fill="#FFFFFF" d="M174.274,486.375c-13.256,0-24-10.745-24-24v-324.75c0-13.255,10.744-24,24-24c13.254,0,24,10.745,24,24
		v324.75C198.274,475.63,187.528,486.375,174.274,486.375z"/>
</g>
</svg>
