<?xml version="1.0" encoding="utf-8"?>
<!-- Generator: Adobe Illustrator 15.1.0, SVG Export Plug-In . SVG Version: 6.00 Build 0)  -->
<!DOCTYPE svg PUBLIC "-//W3C//DTD SVG 1.1//EN" "http://www.w3.org/Graphics/SVG/1.1/DTD/svg11.dtd">
<svg version="1.1" id="Layer_3" xmlns="http://www.w3.org/2000/svg" xmlns:xlink="http://www.w3.org/1999/xlink" x="0px" y="0px"
	 width="100px" height="100px" viewBox="0 0 100 100" enable-background="new 0 0 100 100" xml:space="preserve">
<g>
	<path fill="#B9CDD5" d="M43.723,50c0-1.338,0.51-2.676,1.528-3.695l32.101-32.1c2.043-2.042,5.354-2.042,7.395,0
		c2.041,2.041,2.041,5.352,0,7.394L56.342,50l28.403,28.4c2.041,2.041,2.041,5.354,0,7.395c-2.041,2.042-5.353,2.042-7.394,0
		l-32.102-32.1C44.231,52.676,43.723,51.338,43.723,50z"/>
	<path fill="#B9CDD5" d="M13.723,50c0-1.338,0.51-2.676,1.528-3.695l32.101-32.1c2.043-2.042,5.354-2.042,7.395,0
		c2.041,2.041,2.041,5.352,0,7.394L26.342,50l28.403,28.4c2.041,2.041,2.041,5.354,0,7.395c-2.041,2.042-5.353,2.042-7.394,0
		l-32.102-32.1C14.231,52.676,13.723,51.338,13.723,50z"/>
</g>
</svg>
