<?xml version="1.0" encoding="utf-8"?>
<!-- Generator: Adobe Illustrator 15.1.0, SVG Export Plug-In . SVG Version: 6.00 Build 0)  -->
<!DOCTYPE svg PUBLIC "-//W3C//DTD SVG 1.1//EN" "http://www.w3.org/Graphics/SVG/1.1/DTD/svg11.dtd">
<svg version="1.1" id="Layer_3" xmlns="http://www.w3.org/2000/svg" xmlns:xlink="http://www.w3.org/1999/xlink" x="0px" y="0px"
	 width="100px" height="100px" viewBox="0 0 100 100" enable-background="new 0 0 100 100" xml:space="preserve">
<g>
	<path fill="#FFFFFF" d="M54.751,53.695l-32.103,32.1c-2.041,2.042-5.353,2.042-7.394,0c-2.041-2.041-2.041-5.354,0-7.395L43.658,50
		L15.253,21.599c-2.041-2.042-2.041-5.353,0-7.394c2.041-2.042,5.353-2.042,7.396,0l32.101,32.1c1.02,1.019,1.527,2.357,1.527,3.695
		S55.77,52.676,54.751,53.695z"/>
	<path fill="#FFFFFF" d="M84.751,53.695l-32.103,32.1c-2.041,2.042-5.354,2.042-7.395,0c-2.041-2.041-2.041-5.354,0-7.395L73.658,50
		L45.253,21.599c-2.041-2.042-2.041-5.353,0-7.394c2.041-2.042,5.353-2.042,7.396,0l32.102,32.1c1.02,1.019,1.527,2.357,1.527,3.695
		S85.77,52.676,84.751,53.695z"/>
</g>
</svg>
