<?xml version="1.0" encoding="utf-8"?>
<!-- Generator: Adobe Illustrator 15.1.0, SVG Export Plug-In . SVG Version: 6.00 Build 0)  -->
<!DOCTYPE svg PUBLIC "-//W3C//DTD SVG 1.1//EN" "http://www.w3.org/Graphics/SVG/1.1/DTD/svg11.dtd">
<svg version="1.1" id="Layer_1" xmlns="http://www.w3.org/2000/svg" xmlns:xlink="http://www.w3.org/1999/xlink" x="0px" y="0px"
	 width="250.822px" height="219.412px" viewBox="0 0 250.822 219.412" enable-background="new 0 0 250.822 219.412"
	 xml:space="preserve">
<g>
	<path fill="#F7F7F7" d="M223.592,91.59c-3.574,0-7.146-1.363-9.873-4.09c-25.248-25.249-58.787-39.154-94.442-39.154
		c-35.653,0-69.194,13.905-94.443,39.154c-5.451,5.452-14.292,5.453-19.746,0c-5.452-5.453-5.452-14.293,0.001-19.745
		c30.523-30.523,71.077-47.333,114.188-47.333c43.113,0,83.666,16.81,114.188,47.333c5.453,5.452,5.452,14.293,0,19.746
		C230.738,90.227,227.165,91.59,223.592,91.59z"/>
	<circle fill="#F7F7F7" cx="119.277" cy="177.697" r="21.292"/>
	<g>
		<path fill="#F7F7F7" d="M237.258,189.74c-3.217,0-6.432-1.227-8.886-3.68l-65.612-65.614c-4.907-4.907-4.906-12.863,0.001-17.771
			c4.907-4.906,12.863-4.907,17.77,0l65.612,65.613c4.908,4.906,4.907,12.863,0,17.771
			C243.689,188.513,240.473,189.74,237.258,189.74z"/>
		<path fill="#F7F7F7" d="M171.646,189.74c-3.216,0-6.432-1.227-8.885-3.68c-4.907-4.908-4.908-12.865-0.001-17.771l65.612-65.613
			c4.908-4.907,12.863-4.908,17.771,0c4.907,4.908,4.908,12.864,0,17.771L180.53,186.06
			C178.076,188.513,174.861,189.74,171.646,189.74z"/>
	</g>
	<g>
		<path fill="#F7F7F7" d="M164.192,102.158c-0.497,0.369-0.981,0.764-1.432,1.215C163.211,102.922,163.695,102.527,164.192,102.158z
			"/>
		<path fill="#F7F7F7" d="M180.53,103.374c-0.612-0.613-1.273-1.151-1.971-1.61C179.257,102.223,179.918,102.76,180.53,103.374z"/>
		<path fill="#F7F7F7" d="M158.316,98.931c3.561-3.56,8.294-5.521,13.329-5.521s9.768,1.96,13.329,5.521l19.477,19.478l4.779-4.78
			c0.311-3.75-0.963-7.605-3.831-10.475c-23.021-23.02-53.605-35.698-86.123-35.698c-32.516,0-63.102,12.678-86.122,35.698
			c-5.18,5.18-5.181,13.578-0.001,18.758s13.579,5.18,18.758,0c28.146-28.144,69.663-34.957,104.288-20.45
			C156.822,100.573,157.525,99.723,158.316,98.931z"/>
	</g>
	<path fill="#F7F7F7" d="M163.966,157.91c0.345,0,0.69-0.021,1.034-0.049l11.482-11.482c0.073-0.9,0.044-1.805-0.075-2.701
		l-18.091-18.091c-0.347-0.347-0.673-0.708-0.987-1.075c-28.987-16.827-66.833-12.848-91.626,11.947
		c-4.907,4.906-4.908,12.863,0,17.771s12.865,4.906,17.771,0c19.74-19.742,51.864-19.744,71.607,0
		C157.534,156.683,160.75,157.91,163.966,157.91z"/>
</g>
</svg>
