<?xml version="1.0" encoding="utf-8"?>
<!-- Generator: Adobe Illustrator 15.1.0, SVG Export Plug-In . SVG Version: 6.00 Build 0)  -->
<!DOCTYPE svg PUBLIC "-//W3C//DTD SVG 1.1//EN" "http://www.w3.org/Graphics/SVG/1.1/DTD/svg11.dtd">
<svg version="1.1" id="Layer_3" xmlns="http://www.w3.org/2000/svg" xmlns:xlink="http://www.w3.org/1999/xlink" x="0px" y="0px"
	 width="600px" height="600px" viewBox="0 0 600 600" enable-background="new 0 0 600 600" xml:space="preserve">
<g>
	<path fill="#FFFFFF" d="M300.874,361.179c-6.629,0-13.26-2.526-18.316-7.575L123.464,194.507
		c-10.121-10.126-10.121-26.531,0-36.646c10.117-10.116,26.522-10.116,36.643,0l140.768,140.775l140.764-140.772
		c10.118-10.115,26.53-10.115,36.646,0c10.121,10.117,10.121,26.527,0,36.644L319.194,353.609
		C314.138,358.663,307.506,361.18,300.874,361.179z"/>
	<path fill="#FFFFFF" d="M486.375,425.727c0,13.256-10.745,24-24,24h-324.75c-13.255,0-24-10.744-24-24c0-13.254,10.745-24,24-24
		h324.75C475.63,401.727,486.375,412.473,486.375,425.727z"/>
</g>
</svg>
