<?xml version="1.0" encoding="utf-8"?>
<!-- Generator: Adobe Illustrator 15.1.0, SVG Export Plug-In . SVG Version: 6.00 Build 0)  -->
<!DOCTYPE svg PUBLIC "-//W3C//DTD SVG 1.1//EN" "http://www.w3.org/Graphics/SVG/1.1/DTD/svg11.dtd">
<svg version="1.1" id="Layer_1" xmlns="http://www.w3.org/2000/svg" xmlns:xlink="http://www.w3.org/1999/xlink" x="0px" y="0px"
	 width="1109.744px" height="1000px" viewBox="541.737 488.164 1109.744 1000"
	 enable-background="new 541.737 488.164 1109.744 1000" xml:space="preserve">
<g>
	<g>
		<g>
			<path fill="#E5899B" d="M937.01,972.848c10.368,0,18.772,8.405,18.772,18.771c0,10.367-8.404,18.771-18.772,18.771
				s-18.771-8.404-18.771-18.771C918.239,981.252,926.642,972.848,937.01,972.848 M937.01,960.929
				c-16.923,0-30.691,13.769-30.691,30.69c0,16.924,13.769,30.691,30.691,30.691c16.923,0,30.692-13.768,30.692-30.691
				C967.702,974.697,953.934,960.929,937.01,960.929L937.01,960.929z"/>
		</g>
	</g>
	<g opacity="0.5">
		<g>
			<path fill="#E5899B" d="M937.01,953.18c21.231,0,38.439,17.21,38.439,38.439c0,21.23-17.208,38.44-38.439,38.44
				s-38.439-17.21-38.439-38.44C898.571,970.391,915.779,953.18,937.01,953.18 M937.01,947.22
				c-24.481,0-44.399,19.918-44.399,44.399c0,24.482,19.918,44.4,44.399,44.4c24.482,0,44.399-19.918,44.399-44.4
				C981.409,967.138,961.493,947.22,937.01,947.22L937.01,947.22z"/>
		</g>
	</g>
	<g opacity="0.5">
		<g>
			<path fill="#DA1C5C" d="M1323.208,785.664c19.586,0,35.459,15.875,35.459,35.459c0,19.584-15.873,35.459-35.459,35.459
				c-19.585,0-35.459-15.875-35.459-35.459C1287.749,801.539,1303.623,785.664,1323.208,785.664 M1323.208,773.744
				c-26.126,0-47.379,21.255-47.379,47.379s21.253,47.378,47.379,47.378c26.125,0,47.379-21.254,47.379-47.378
				S1349.333,773.744,1323.208,773.744L1323.208,773.744z"/>
		</g>
	</g>
	<g opacity="0.5">
		<g>
			<path fill="#ED1C24" d="M1393.432,1370.02c-0.003,0-0.003,0-0.005,0c-17.688-0.003-32.077-14.396-32.076-32.085
				c0.004-17.687,14.396-32.076,32.081-32.076c0.002,0,0.002,0,0.005,0c3.292,0,5.96,2.67,5.959,5.96c0,3.292-2.668,5.96-5.96,5.96
				l0,0c-0.002,0-0.003,0-0.003,0c-11.116,0-20.159,9.042-20.162,20.159c0,11.115,9.041,20.16,20.157,20.162
				c0.001,0,0.001,0,0.003,0c11.116,0,20.159-9.043,20.162-20.159c0-3.29,2.669-5.958,5.958-5.958c0.002,0,0.002,0,0.003,0
				c3.291,0.001,5.959,2.669,5.958,5.961C1425.509,1355.63,1411.117,1370.018,1393.432,1370.02z"/>
			<g>
				<polygon fill="#ED1C24" points="1431.963,1341.596 1419.486,1319.979 1407.001,1341.593 				"/>
			</g>
		</g>
	</g>
	<g>
		<path fill="#E6E7E8" d="M1386.14,923.64c-3.291,0-5.96-2.669-5.96-5.96v-86.131c0-3.292,2.669-5.96,5.96-5.96
			c3.29,0,5.96,2.668,5.96,5.96v86.131C1392.1,920.971,1389.43,923.64,1386.14,923.64z"/>
		<path opacity="0.5" fill="#ED1C24" enable-background="new    " d="M1386.14,804.443c-3.291,0-5.96-2.669-5.96-5.96v-36.069
			c0-3.292,2.669-5.96,5.96-5.96c3.29,0,5.96,2.668,5.96,5.96v36.069C1392.1,801.774,1389.43,804.443,1386.14,804.443z"/>
		<path opacity="0.4" fill="#DA1C5C" enable-background="new    " d="M1386.14,732.925c-3.291,0-5.96-2.669-5.96-5.96v-18.034
			c0-3.292,2.669-5.96,5.96-5.96c3.29,0,5.96,2.668,5.96,5.96v18.034C1392.1,730.256,1389.43,732.925,1386.14,732.925z"/>
		<g opacity="0.2">
			<g>
				<path fill="#ED1C24" d="M1386.14,679.286c-3.291,0-5.96-2.668-5.96-5.96v-7.759c0-3.292,2.669-5.96,5.96-5.96
					c3.29,0,5.96,2.668,5.96,5.96v7.759C1392.1,676.618,1389.43,679.286,1386.14,679.286z"/>
				<g>
					<polygon fill="#ED1C24" points="1397.959,669.045 1386.075,648.459 1374.188,669.045 					"/>
				</g>
			</g>
		</g>
	</g>
	<g>
		<g>
			<path fill="#F1F2F2" d="M1150.97,1089.361c-6.584,0-11.92-5.337-11.92-11.92v-42.91c0.004-1.414,0.219-13.938,6.682-26.807
				c9.078-18.072,26.213-28.024,48.249-28.024h42.832c0.499-0.012,8.906-0.287,16.807-4.447
				c9.631-5.072,14.313-13.771,14.313-26.595c0-13.059-4.881-21.835-14.922-26.833c-7.901-3.932-16.14-4.108-16.219-4.108
				c-6.583,0-11.92-5.337-11.92-11.92c0-6.584,5.337-11.92,11.92-11.92c1.39,0,13.94,0.186,26.84,6.606
				c18.147,9.031,28.14,26.14,28.14,48.175c0,22.021-9.966,39.142-28.06,48.209c-12.877,6.454-25.408,6.669-26.794,6.671h-42.938
				c-12.849,0-21.563,4.676-26.643,14.298c-4.162,7.884-4.436,16.274-4.448,16.772v42.832
				C1162.89,1084.024,1157.554,1089.361,1150.97,1089.361z"/>
			<g>
				<polygon fill="#F1F2F2" points="1245.836,875.067 1192.312,905.967 1245.836,936.873 				"/>
			</g>
		</g>
	</g>
	<g opacity="0.5">
		<g>
			<path fill="#00A79D" d="M1108.846,1268.207c-31.663,0-57.423-25.76-57.423-57.425c0-3.291,2.668-5.96,5.959-5.96
				c3.292,0,5.961,2.669,5.961,5.96c0,25.093,20.412,45.505,45.503,45.505c25.09,0,45.503-20.412,45.503-45.505
				c0-25.09-20.413-45.502-45.503-45.502c-3.292,0-5.96-2.668-5.96-5.96c0-3.29,2.668-5.96,5.96-5.96
				c31.663,0,57.423,25.76,57.423,57.422C1166.269,1242.447,1140.509,1268.207,1108.846,1268.207z"/>
			<g>
				<polygon fill="#00A79D" points="1112.845,1172.912 1089.171,1159.245 1112.845,1145.575 				"/>
			</g>
		</g>
	</g>
	<g opacity="0.3">
		<path fill="#ED1C24" d="M1401.284,999.465c-3.05,0-6.1-1.164-8.428-3.492l-30.29-30.29c-4.654-4.655-4.654-12.203,0.001-16.856
			c4.654-4.655,12.202-4.655,16.856,0l30.29,30.29c4.655,4.655,4.654,12.202-0.001,16.856
			C1407.386,998.3,1404.334,999.465,1401.284,999.465z"/>
		<path fill="#ED1C24" d="M1370.996,999.465c-3.052,0-6.102-1.164-8.429-3.492c-4.655-4.654-4.655-12.201-0.001-16.856l30.29-30.29
			c4.654-4.655,12.201-4.655,16.856,0c4.655,4.654,4.656,12.202,0.001,16.856l-30.29,30.29
			C1377.098,998.3,1374.046,999.465,1370.996,999.465z"/>
	</g>
	<g opacity="0.5">
		<path fill="#D1D3D4" d="M1120.85,1234.898c-3.05,0-6.102-1.163-8.428-3.491l-24.391-24.39c-4.655-4.655-4.655-12.203,0-16.857
			c4.655-4.655,12.203-4.655,16.857,0l24.39,24.391c4.655,4.653,4.655,12.201,0,16.856
			C1126.951,1233.735,1123.9,1234.898,1120.85,1234.898z"/>
		<path fill="#D1D3D4" d="M1096.461,1234.898c-3.052,0-6.103-1.163-8.43-3.491c-4.655-4.655-4.655-12.203,0-16.856l24.391-24.391
			c4.653-4.655,12.202-4.655,16.856,0c4.655,4.654,4.655,12.202,0,16.857l-24.39,24.39
			C1102.561,1233.735,1099.511,1234.898,1096.461,1234.898z"/>
	</g>
	<path fill="#F1F2F2" d="M1323.208,1562.526c-6.582,0-11.92-5.336-11.92-11.92v-171.555c-0.014-0.532-0.304-8.956-4.461-16.874
		c-5.072-9.659-13.75-14.355-26.529-14.355c-21.979,0-39.076-9.953-48.145-28.029c-6.453-12.859-6.683-25.374-6.686-26.759v-85.416
		c0-1.39,0.185-13.943,6.614-26.846c9.04-18.143,26.163-28.134,48.216-28.134c22.037,0,39.156,9.928,48.2,27.955
		c6.334,12.622,6.621,24.916,6.63,26.646c0.009,0.396,0.255,8.825,4.429,16.741c5.059,9.594,13.748,14.256,26.562,14.256
		c12.815,0,21.504-4.662,26.563-14.256c4.148-7.866,4.415-16.242,4.428-16.733v-128.604c-0.01-0.453-0.254-8.867-4.407-16.769
		c-5.049-9.608-13.745-14.278-26.584-14.278c-22.044,0-39.166-9.96-48.209-28.044c-6.436-12.874-6.622-25.4-6.622-26.787V821.124
		c0-6.584,5.338-11.92,11.92-11.92c6.584,0,11.92,5.336,11.92,11.92v171.587c0.01,0.451,0.255,8.866,4.407,16.769
		c5.051,9.607,13.746,14.277,26.584,14.277c22.046,0,39.167,9.959,48.209,28.045c6.437,12.873,6.622,25.4,6.622,26.786v128.732
		c-0.002,1.404-0.21,13.912-6.658,26.764c-9.057,18.051-26.164,27.992-48.173,27.992c-22.007,0-39.116-9.941-48.173-27.992
		c-6.388-12.732-6.65-25.128-6.658-26.702c-0.007-0.377-0.234-8.79-4.4-16.688c-5.047-9.565-13.746-14.216-26.59-14.216
		c-12.833,0-21.526,4.689-26.579,14.339c-4.16,7.943-4.402,16.401-4.413,16.855v85.231c0.016,0.527,0.304,8.909,4.457,16.786
		c5.07,9.617,13.749,14.294,26.535,14.294c21.984,0,39.087,9.986,48.152,28.119c6.444,12.89,6.673,25.431,6.678,26.819v171.684
		C1335.128,1557.19,1329.792,1562.526,1323.208,1562.526z"/>
	<path fill="#F1F2F2" d="M1393.432,1562.526c-6.584,0-11.92-5.336-11.92-11.92v-128.732c0-1.386,0.186-13.913,6.622-26.786
		c9.042-18.084,26.163-28.045,48.208-28.045c13.09,0,21.884-4.861,26.887-14.865c3.807-7.614,4.091-15.538,4.104-16.095
		c-0.018-0.673-0.314-8.957-4.406-16.744c-5.051-9.606-13.745-14.277-26.585-14.277c-13.09,0-21.884,4.863-26.885,14.866
		c-3.93,7.858-4.105,16.046-4.105,16.125c0,6.583-5.336,11.919-11.92,11.919s-11.92-5.336-11.92-11.919
		c0-1.387,0.186-13.913,6.622-26.787c9.042-18.084,26.163-28.043,48.208-28.043s39.167,9.959,48.21,28.043
		c6.436,12.874,6.621,25.4,6.621,26.787c0,1.386-0.186,13.913-6.621,26.786c-9.043,18.084-26.165,28.044-48.21,28.044
		c-13.09,0-21.884,4.862-26.885,14.866c-3.93,7.857-4.105,16.046-4.105,16.125v128.732
		C1405.352,1557.19,1400.016,1562.526,1393.432,1562.526z"/>
	<path fill="#F1F2F2" d="M1237.388,1562.526c-6.584,0-11.92-5.336-11.92-11.92v-128.634c-0.017-0.562-0.324-8.928-4.474-16.79
		c-5.076-9.623-13.752-14.3-26.519-14.3l-43.021-0.001c-1.383-0.013-13.878-0.312-26.715-6.79
		c-18.061-9.112-28.005-26.174-28.005-48.039c0-21.855,9.903-38.911,27.886-48.029c12.519-6.347,24.714-6.772,26.528-6.8
		c0.463-0.016,8.991-0.377,17.017-4.643c9.75-5.183,14.489-13.899,14.489-26.648l-0.297-85.749v-0.069
		c0.011-1.378,0.299-13.825,6.822-26.604c9.146-17.916,26.266-27.781,48.207-27.781h42.819c0.51-0.014,8.902-0.301,16.789-4.457
		c9.617-5.07,14.292-13.749,14.292-26.535c0-6.582,5.338-11.92,11.92-11.92c6.584,0,11.92,5.338,11.92,11.92
		c0,21.979-9.954,39.076-28.029,48.145c-12.86,6.453-25.374,6.681-26.76,6.686h-42.951c-13.074,0-21.896,4.835-26.975,14.782
		c-3.857,7.559-4.197,15.411-4.215,15.934l0.297,85.61c0,21.936-9.993,39.059-28.136,48.256
		c-12.855,6.517-25.366,6.891-26.816,6.911c-0.293,0.009-8.77,0.293-16.73,4.531c-9.58,5.102-14.239,13.758-14.239,26.462
		c0,12.696,4.685,21.35,14.321,26.455c7.807,4.135,16.105,4.511,16.806,4.535h42.775c21.956,0,39.046,9.953,48.125,28.025
		c6.457,12.855,6.699,25.366,6.705,26.751v128.787C1249.306,1557.19,1243.97,1562.526,1237.388,1562.526z"/>
	<path fill="#F1F2F2" d="M1096.736,1336.208c-0.001-0.086-0.218-8.728-4.505-16.837c-5.092-9.629-13.755-14.31-26.487-14.31
		c-21.926,0-39.007-10.013-48.098-28.194c-6.454-12.907-6.724-25.463-6.732-26.853l-0.001-0.082v-85.226
		c0-1.387,0.186-13.913,6.624-26.786c9.042-18.085,26.162-28.044,48.208-28.044c13.081,0,21.873-4.883,26.877-14.927
		c3.937-7.899,4.114-16.135,4.114-16.214V907.359c-0.021-0.644-0.366-8.968-4.505-16.797c-5.092-9.63-13.755-14.31-26.487-14.31
		c-12.732,0-21.395,4.68-26.487,14.31c-4.139,7.829-4.485,16.153-4.505,16.797v85.706c0,1.386-0.186,13.913-6.623,26.785
		c-9.042,18.085-26.163,28.045-48.208,28.045s-39.166-9.96-48.208-28.045c-6.436-12.872-6.622-25.399-6.622-26.785h23.838v-0.074
		c0.001,0.085,0.16,8.705,4.407,16.787c5.051,9.607,13.746,14.277,26.584,14.277c12.838,0,21.534-4.67,26.583-14.277
		c4.166-7.925,4.4-16.363,4.407-16.772l0.001-85.846c0.008-1.383,0.28-13.886,6.749-26.732c9.096-18.066,26.17-28.015,48.082-28.015
		c21.91,0,38.986,9.949,48.082,28.015c6.467,12.846,6.738,25.349,6.747,26.732l0.001,0.083v171.494
		c0,1.39-0.186,13.943-6.614,26.847c-9.041,18.142-26.165,28.133-48.216,28.133c-12.839,0-21.535,4.671-26.585,14.277
		c-4.151,7.899-4.397,16.309-4.407,16.769v85.058c0.02,0.649,0.365,9.058,4.516,16.971c5.096,9.712,13.754,14.433,26.476,14.433
		c21.91,0,38.986,9.949,48.082,28.015c6.467,12.847,6.738,25.35,6.747,26.732l-23.837,0.166V1336.208z"/>
	<g opacity="0.3">
		<path fill="#FFDE17" d="M1496.682,1216.234c-0.854-0.435-1.435-1.104-1.741-2.003c-0.305-0.897-0.46-2.301-0.46-4.207
			c0-1.905,0.417-3.286,1.25-4.14c0.831-0.854,2.146-1.281,3.941-1.281h1.052c1.052,0,1.83,0.032,2.334,0.099
			c0.504,0.065,1.106,0.275,1.808,0.626c1.271,0.701,1.904,2.375,1.904,5.027c0,2.65-0.428,4.402-1.281,5.257
			c-0.854,0.854-2.508,1.281-4.961,1.281C1498.818,1216.894,1497.535,1216.674,1496.682,1216.234z M1489.025,1207.43
			c0.222,0.832,0.331,1.949,0.331,3.352s-0.109,2.52-0.331,3.352c-0.217,0.832-0.61,1.412-1.181,1.741
			c-0.569,0.328-1.073,0.525-1.513,0.592c-0.436,0.065-1.117,0.098-2.036,0.098h-20.832c-0.919,0-1.61-0.032-2.07-0.098
			c-0.459-0.066-0.974-0.273-1.544-0.624c-0.568-0.352-0.977-0.941-1.216-1.775c-0.24-0.832-0.362-1.949-0.362-3.352
			c0-1.401,0.122-2.519,0.362-3.352c0.239-0.831,0.656-1.411,1.248-1.741s1.117-0.527,1.577-0.591
			c0.461-0.065,1.15-0.099,2.069-0.099h20.832c0.921,0,1.602,0.033,2.038,0.099c0.438,0.063,0.93,0.273,1.478,0.624
			C1488.425,1206.007,1488.809,1206.599,1489.025,1207.43z"/>
	</g>
	<g opacity="0.3">
		<path fill="#FFDE17" d="M1482.324,1159.875l14.521-13.21c1.667-1.488,3.067-2.233,4.207-2.233c1.141,0,2.475,0.843,4.01,2.528
			c1.533,1.688,2.299,3.112,2.299,4.272s-0.877,2.508-2.629,4.041l-14.325,12.486l14.325,12.485
			c1.752,1.577,2.629,2.925,2.629,4.043c0,1.116-0.778,2.539-2.333,4.27c-1.554,1.731-2.881,2.596-3.976,2.596
			c-1.094,0-2.498-0.767-4.207-2.3l-14.521-13.209l-14.523,13.209c-1.622,1.533-3.001,2.3-4.14,2.3s-2.487-0.854-4.041-2.562
			c-1.555-1.709-2.335-3.144-2.335-4.304s0.879-2.509,2.63-4.042l14.326-12.485l-14.326-12.486c-1.751-1.577-2.63-2.924-2.63-4.041
			c0-1.116,0.768-2.53,2.3-4.237c1.534-1.709,2.893-2.563,4.076-2.563s2.562,0.745,4.14,2.233L1482.324,1159.875z"/>
	</g>
	<g opacity="0.3">
		<path fill="#F26522" d="M1318.083,738.346l0.064-0.523c0-1.885,0.536-3.374,1.611-4.47c1.073-1.094,2.245-1.818,3.516-2.168
			c1.269-0.349,2.442-0.942,3.515-1.774c1.074-0.833,1.61-1.961,1.61-3.386c0-1.422-0.407-2.529-1.217-3.317
			c-0.811-0.789-2.025-1.184-3.646-1.184c-1.622,0-2.814,0.253-3.583,0.756c-0.765,0.505-1.236,1.021-1.411,1.544l-0.197,0.79
			c-0.394,1.139-0.854,2.003-1.379,2.595c-0.526,0.592-1.206,0.888-2.037,0.888c-0.833,0-1.929-0.264-3.287-0.79
			c-2.628-1.007-3.941-2.255-3.941-3.745c0-0.658,0.131-1.325,0.393-2.005c0.262-0.678,0.481-1.249,0.659-1.708
			c0.174-0.459,0.645-1.258,1.411-2.397c0.767-1.14,1.644-2.136,2.629-2.992c0.985-0.854,2.376-1.642,4.174-2.366
			c1.795-0.722,3.786-1.083,5.979-1.083c4.643,0,8.432,1.489,11.368,4.468c2.935,2.979,4.403,6.439,4.403,10.382
			c0,1.885-0.34,3.626-1.019,5.225c-0.681,1.6-1.502,2.859-2.465,3.779c-1.929,1.84-3.724,3.067-5.39,3.679l-1.052,0.329
			c0,0.747-0.032,1.315-0.098,1.708c-0.065,0.394-0.263,0.822-0.592,1.281c-0.327,0.461-0.877,0.789-1.642,0.986
			c-0.769,0.196-1.785,0.296-3.057,0.296s-2.29-0.111-3.057-0.331c-0.767-0.219-1.304-0.592-1.608-1.118
			c-0.308-0.524-0.493-0.995-0.559-1.412C1318.115,739.871,1318.083,739.224,1318.083,738.346z M1317.818,750.078
			c0.352-0.679,0.976-1.172,1.875-1.479c0.896-0.305,2.311-0.459,4.236-0.459c1.928,0,3.319,0.427,4.173,1.281
			c0.856,0.854,1.282,2.509,1.282,4.961c0,1.753-0.219,3.055-0.657,3.911c-0.438,0.854-1.107,1.424-2.004,1.708
			c-0.899,0.285-2.29,0.427-4.174,0.427s-3.329-0.459-4.337-1.38c-0.744-0.745-1.117-2.015-1.117-3.812v-1.05
			c0-1.007,0.033-1.776,0.1-2.301C1317.262,751.36,1317.468,750.757,1317.818,750.078z"/>
	</g>
	<g opacity="0.3">
		<path fill="#FFDE17" d="M1475.539,1091.115c1.931-0.57,3.49-0.859,4.671-0.859c1.184,0,2.241,0.36,3.171,1.075
			c0.93,0.717,1.577,1.469,1.932,2.256c0.361,0.789,0.825,1.972,1.396,3.547l1.399,4.511l4.94-3.545l1.29-0.859
			c1.578-0.929,2.758-1.396,3.544-1.396c2.077,0,4.12,1.396,6.125,4.189c2.004,2.794,3.008,4.801,3.008,6.018
			c0,1.218-0.251,2.22-0.752,3.007c-0.717,1.073-1.935,2.22-3.655,3.437l-4.295,3.116l5.37,3.974
			c2.364,1.578,3.544,3.172,3.544,4.783s-1.034,3.867-3.116,6.766c-2.072,2.901-4.114,4.352-6.121,4.352
			c-1.216,0-2.861-0.752-4.942-2.256l-4.94-3.544l-1.398,4.511c-0.498,2.579-1.539,4.513-3.115,5.802
			c-0.929,0.716-2.041,1.074-3.328,1.074c-1.291,0-2.722-0.251-4.299-0.752c-4.728-1.574-7.09-3.653-7.09-6.23
			c0-1.003,0.323-2.434,0.967-4.299l1.721-5.479h-5.587c-2.434,0-4.226-0.303-5.37-0.912c-1.146-0.608-1.898-1.539-2.261-2.794
			c-0.354-1.251-0.534-2.918-0.534-4.997c0-2.075,0.198-3.74,0.592-4.993s1.054-2.131,1.987-2.632c1.36-0.716,3.4-1.076,6.122-1.076
			h5.051l-1.721-5.263c-0.717-2.291-1.075-3.795-1.075-4.513C1468.769,1094.627,1471.025,1092.621,1475.539,1091.115z"/>
	</g>
	<g opacity="0.3">
		<path fill="#FFDE17" d="M1470.659,1083.188c-3.747,0-6.736-0.986-8.97-2.957c-2.235-1.972-3.352-4.709-3.352-8.216
			c0-3.502,1.094-6.209,3.285-8.115c2.19-1.904,5.213-2.857,9.068-2.857c3.856,0,6.845,0.953,8.971,2.857
			c2.125,1.906,3.188,4.578,3.188,8.018s-1.096,6.177-3.286,8.214C1477.372,1082.17,1474.405,1083.188,1470.659,1083.188z
			 M1474.962,1072.147c0-2.627-1.467-3.941-4.403-3.941c-1.575,0-2.693,0.308-3.352,0.919c-0.656,0.613-0.984,1.611-0.984,2.99
			c0,1.381,0.34,2.389,1.02,3.022c0.68,0.636,1.797,0.953,3.352,0.953c1.554,0,2.672-0.327,3.352-0.986
			C1474.625,1074.448,1474.962,1073.463,1474.962,1072.147z M1456.694,1047.899c-1.006-0.569-1.511-1.127-1.511-1.676
			c0-0.547,0.283-1.347,0.854-2.398s1.184-1.578,1.842-1.578c0.308,0,0.722,0.155,1.247,0.46l48.038,25.433l0.199,0.131
			c0.875,0.483,1.313,0.985,1.313,1.512c0,0.527-0.275,1.314-0.822,2.365c-0.549,1.054-1.083,1.579-1.609,1.579
			c-0.525,0-1.052-0.154-1.577-0.46L1456.694,1047.899z M1494.578,1055.523c-3.744,0-6.734-0.985-8.97-2.957
			c-2.234-1.972-3.352-4.72-3.352-8.248c0-3.524,1.097-6.23,3.287-8.115c2.191-1.885,5.224-2.826,9.101-2.826
			s6.879,0.941,9.001,2.826c2.127,1.885,3.188,4.557,3.188,8.018c0.003,3.461-1.104,6.211-3.316,8.246
			C1501.304,1054.504,1498.326,1055.523,1494.578,1055.523z M1498.949,1044.482c0-2.67-1.49-4.008-4.469-4.008
			c-1.578,0-2.695,0.317-3.352,0.951c-0.658,0.637-0.984,1.644-0.984,3.023s0.34,2.378,1.018,2.99c0.68,0.614,1.807,0.92,3.384,0.92
			c1.579,0,2.707-0.317,3.387-0.953C1498.611,1046.772,1498.949,1045.799,1498.949,1044.482z"/>
	</g>
	<g opacity="0.3">
		<path fill="#FFDE17" d="M1483.507,1008.516v-5.324c0-1.532,0.185-2.65,0.559-3.353c0.372-0.699,0.93-1.171,1.676-1.412
			c0.745-0.241,1.741-0.362,2.989-0.362c1.249,0,2.246,0.111,2.991,0.33c0.746,0.219,1.271,0.59,1.577,1.116
			c0.395,0.79,0.592,1.905,0.592,3.352v5.652h5.322c1.535,0,2.65,0.186,3.352,0.558c0.701,0.373,1.173,0.932,1.412,1.676
			c0.242,0.746,0.362,1.742,0.362,2.99c0,1.25-0.12,2.245-0.362,2.991c-0.239,0.745-0.646,1.271-1.214,1.576
			c-0.834,0.395-2.038,0.592-3.616,0.592h-5.256v5.717c0,1.446-0.176,2.497-0.526,3.155c-0.349,0.656-0.909,1.096-1.676,1.313
			c-0.766,0.22-1.764,0.329-2.989,0.329c-1.229,0-2.224-0.12-2.99-0.361c-0.768-0.239-1.304-0.668-1.611-1.281
			c-0.394-0.832-0.59-2.038-0.59-3.615v-5.257h-5.324c-1.532,0-2.649-0.174-3.351-0.524c-0.7-0.35-1.173-0.908-1.413-1.676
			c-0.24-0.767-0.361-1.764-0.361-2.99s0.121-2.224,0.361-2.991c0.24-0.765,0.646-1.302,1.215-1.61
			c0.832-0.394,2.038-0.59,3.615-0.59H1483.507L1483.507,1008.516z"/>
	</g>
	<g opacity="0.3">
		<path fill="#FFDE17" d="M1479.497,957.024c0.878-1.753,2.41-2.63,4.601-2.63c2.191,0,3.701,0.854,4.533,2.564l16.691,28.06
			c1.445,2.234,1.6,4.031,0.461,5.389c-0.525,0.614-1.315,1.248-2.367,1.905c-1.445,0.877-2.495,1.314-3.154,1.314
			c-0.657,0-1.226-0.132-1.708-0.394c-0.744-0.483-1.532-1.423-2.366-2.826l-12.092-20.438l-12.092,20.372
			c-0.481,0.787-0.876,1.379-1.181,1.773c-0.833,0.964-1.73,1.445-2.695,1.445c-0.875,0-1.927-0.371-3.154-1.117
			c-2.277-1.356-3.416-2.628-3.416-3.811c0-1.052,0.417-2.234,1.248-3.548L1479.497,957.024z"/>
	</g>
	<path fill="#F1F2F2" d="M1537.763,1562.526c-6.583,0-11.92-5.336-11.92-11.92v-214.853c-0.006-2.42,0.397-24.346,16.078-40.063
		c9.676-9.7,22.664-14.617,38.604-14.617c12.833,0,21.552-4.688,26.653-14.333c4.035-7.63,4.449-15.733,4.484-16.732
		c-0.03-0.987-0.403-9.052-4.393-16.638c-5.033-9.575-13.7-14.229-26.497-14.229c-22,0-39.106-9.956-48.165-28.034
		c-6.448-12.864-6.662-25.383-6.665-26.769l-0.1-299.889c-0.02-0.632-0.362-8.976-4.511-16.824
		c-5.1-9.645-13.778-14.335-26.53-14.335c-21.949,0-39.03-10.006-48.095-28.177c-6.438-12.905-6.68-25.457-6.686-26.846v-85.876
		c0-6.583,5.337-11.92,11.92-11.92c6.582,0,11.92,5.337,11.92,11.92v85.724c0.015,0.553,0.318,9,4.476,16.94
		c5.073,9.688,13.729,14.397,26.465,14.397c21.93,0,39.022,9.958,48.126,28.04c6.474,12.858,6.745,25.373,6.755,26.757v0.08
		l0.099,299.899c0.011,0.449,0.272,8.872,4.439,16.784c5.064,9.615,13.749,14.289,26.552,14.289c22.005,0,39.095,9.943,48.12,27.995
		c6.426,12.848,6.611,25.353,6.611,26.736c-0.006,1.441-0.249,13.969-6.73,26.84c-9.103,18.083-26.238,28.04-48.249,28.04
		c-9.509,0-16.615,2.491-21.728,7.615c-8.754,8.775-9.115,23.06-9.114,23.199v214.88
		C1549.683,1557.19,1544.346,1562.526,1537.763,1562.526z"/>
	<path opacity="0.5" fill="#ED1C24" enable-background="new    " d="M1451.941,661.598c-6.583,0-11.92-5.337-11.92-11.92v-42.911
		c0-6.583,5.337-11.92,11.92-11.92c6.582,0,11.92,5.336,11.92,11.92v42.911C1463.861,656.261,1458.523,661.598,1451.941,661.598z"/>
	<path opacity="0.3" fill="#ED1C24" enable-background="new    " d="M1451.941,581.735c-6.583,0-11.92-5.336-11.92-11.919v-17.482
		c0-6.583,5.337-11.919,11.92-11.919c6.582,0,11.92,5.337,11.92,11.919v17.482C1463.861,576.399,1458.523,581.735,1451.941,581.735z
		"/>
	<path opacity="0.2" fill="#DA1C5C" enable-background="new    " d="M1451.941,528.097c-6.583,0-11.92-5.336-11.92-11.92v-5.76
		c0-6.583,5.337-11.92,11.92-11.92c6.582,0,11.92,5.336,11.92,11.92v5.76C1463.861,522.761,1458.523,528.097,1451.941,528.097z"/>
	<g opacity="0.3">
		<path fill="#7F3F98" d="M1261.473,1072.444c0.437-0.854,1.105-1.435,2.003-1.742c0.898-0.305,2.302-0.458,4.206-0.458
			c1.907,0,3.287,0.416,4.14,1.248c0.854,0.833,1.281,2.147,1.281,3.942v1.052c0,1.052-0.031,1.83-0.099,2.333
			c-0.064,0.505-0.273,1.106-0.625,1.808c-0.699,1.271-2.375,1.905-5.027,1.905c-2.65,0-4.4-0.429-5.256-1.281
			c-0.854-0.854-1.281-2.509-1.281-4.962C1260.815,1074.58,1261.033,1073.297,1261.473,1072.444z M1270.279,1064.787
			c-0.832,0.221-1.95,0.33-3.352,0.33c-1.402,0-2.521-0.109-3.352-0.33c-0.832-0.217-1.414-0.61-1.741-1.181
			c-0.329-0.568-0.526-1.074-0.593-1.512c-0.066-0.437-0.098-1.118-0.098-2.037v-20.832c0-0.92,0.031-1.609,0.098-2.07
			c0.066-0.46,0.272-0.974,0.624-1.544c0.353-0.568,0.942-0.975,1.776-1.216c0.831-0.24,1.948-0.36,3.35-0.36
			c1.403,0,2.521,0.12,3.353,0.36c0.831,0.241,1.412,0.656,1.742,1.248c0.328,0.592,0.526,1.118,0.59,1.576
			c0.064,0.462,0.1,1.151,0.1,2.07v20.832c0,0.921-0.035,1.602-0.1,2.038c-0.063,0.438-0.274,0.931-0.624,1.478
			C1271.701,1064.187,1271.11,1064.57,1270.279,1064.787z"/>
	</g>
</g>
</svg>
