<?xml version="1.0" encoding="utf-8"?>
<!-- Generator: Adobe Illustrator 15.1.0, SVG Export Plug-In . SVG Version: 6.00 Build 0)  -->
<!DOCTYPE svg PUBLIC "-//W3C//DTD SVG 1.1//EN" "http://www.w3.org/Graphics/SVG/1.1/DTD/svg11.dtd">
<svg version="1.1" id="Layer_3" xmlns="http://www.w3.org/2000/svg" xmlns:xlink="http://www.w3.org/1999/xlink" x="0px" y="0px"
	 width="600px" height="600px" viewBox="0 0 600 600" enable-background="new 0 0 600 600" xml:space="preserve">
<g>
	<path fill="#9FADB5" d="M432.299,170.578V279H485V119.023c0-2.222-1.801-4.023-4.022-4.023H321v52.701h108.422
		C431.011,167.701,432.299,168.989,432.299,170.578z"/>
	<path fill="#9FADB5" d="M432.299,321v108.422c0,1.589-1.288,2.877-2.877,2.877H170.578c-1.589,0-2.877-1.288-2.877-2.877V170.578
		c0-1.588,1.288-2.876,2.877-2.876H279V115H119.022c-2.222,0-4.022,1.801-4.022,4.023v361.955c0,2.222,1.801,4.022,4.022,4.022
		h361.955c2.222,0,4.022-1.801,4.022-4.022V321H432.299z"/>
</g>
<path fill="#9FADB5" d="M447.244,153.853c9.832,9.831,11.786,23.816,4.366,31.236L320.088,316.61
	c-7.42,7.42-21.404,5.466-31.235-4.365l-3.748-3.749c-9.83-9.83-11.785-23.814-4.365-31.234l131.522-131.522
	c7.419-7.419,21.404-5.465,31.234,4.365L447.244,153.853z"/>
</svg>
