<?xml version="1.0" encoding="utf-8"?>
<!-- Generator: Adobe Illustrator 15.1.0, SVG Export Plug-In . SVG Version: 6.00 Build 0)  -->
<!DOCTYPE svg PUBLIC "-//W3C//DTD SVG 1.1//EN" "http://www.w3.org/Graphics/SVG/1.1/DTD/svg11.dtd">
<svg version="1.1" id="Layer_1" xmlns="http://www.w3.org/2000/svg" xmlns:xlink="http://www.w3.org/1999/xlink" x="0px" y="0px"
	 width="44.958px" height="33.792px" viewBox="0 0 44.958 33.792" enable-background="new 0 0 44.958 33.792" xml:space="preserve">
<rect x="16.476" y="3.68" transform="matrix(-0.8249 0.5652 -0.5652 -0.8249 37.8496 10.1144)" fill="#FFD100" width="1.766" height="14.479"/>
<rect x="8.233" y="15.307" transform="matrix(-0.8253 0.5647 -0.5647 -0.8253 29.3731 36.0067)" fill="#FFD100" width="1.768" height="14.48"/>
<rect x="32.887" y="3.681" transform="matrix(-0.8252 0.5649 -0.5649 -0.8252 67.8064 0.8574)" fill="#FFD100" width="1.767" height="14.479"/>
<rect x="24.608" y="15.749" transform="matrix(-0.8255 0.5644 -0.5644 -0.8255 59.5078 27.5796)" fill="#FFD100" width="1.765" height="14.478"/>
<rect x="17.102" y="14.976" transform="matrix(0.8335 0.5525 -0.5525 0.8335 15.2697 -6.2379)" fill="#FFD100" width="1.766" height="14.48"/>
<rect x="8.234" y="3.681" transform="matrix(0.834 0.5518 -0.5518 0.834 7.5394 -3.2176)" fill="#FFD100" width="1.765" height="14.478"/>
<rect x="33.44" y="14.975" transform="matrix(0.833 0.5533 -0.5533 0.833 18.0234 -15.2801)" fill="#FFD100" width="1.765" height="14.48"/>
<rect x="24.571" y="3.681" transform="matrix(0.8338 0.552 -0.552 0.8338 10.2577 -12.2364)" fill="#FFD100" width="1.766" height="14.478"/>
<rect x="13.856" y="4.058" fill="#FFD100" width="14.479" height="1.768"/>
<rect x="13.857" y="27.854" fill="#FFD100" width="14.479" height="1.765"/>
<rect x="29.422" y="9.395" transform="matrix(0.003 1 -1 0.003 46.849 -13.7216)" fill="#FFD100" width="1.768" height="14.479"/>
<g>
	<polygon fill="#27AAE1" points="332.839,19.776 334.183,14.016 324.294,14.016 325.039,10.808 318.396,10.808 313.255,33.216 
		332.457,33.216 333.751,27.457 321.222,27.457 323,19.776 	"/>
	<polygon fill="#27AAE1" points="320.744,0.576 318.968,8.308 325.615,8.308 326.072,6.336 338.55,6.336 339.894,0.576 	"/>
</g>
<g>
	<polygon fill="#27AAE1" points="296.729,8.308 298.519,0.576 291.896,0.576 290.104,8.308 	"/>
	<polygon fill="#27AAE1" points="313.048,8.308 314.839,0.576 308.214,0.576 306.423,8.308 	"/>
	<path fill="#27AAE1" d="M305.845,10.808l-2.621,11.32c-0.48,2.176-1.137,3.703-1.969,4.584s-2.072,1.32-3.721,1.32
		s-2.801-0.193-3.455-0.576c-0.656-0.385-0.984-1.064-0.984-2.041c0-0.976,0.145-2.072,0.433-3.287l2.622-11.32h-6.626l-2.38,10.264
		c-0.417,1.889-0.624,3.665-0.624,5.328c0,4.93,3.487,7.393,10.464,7.393c3.457,0,6.23-0.92,8.328-2.76
		c2.096-1.84,3.607-4.809,4.535-8.904l2.621-11.319L305.845,10.808L305.845,10.808z"/>
</g>
<g>
	<polygon fill="#27AAE1" points="277.154,8.308 278.935,0.576 272.311,0.576 270.526,8.308 	"/>
	<polygon fill="#27AAE1" points="276.578,10.808 269.949,10.808 264.775,33.216 281.767,33.216 283.063,27.457 272.744,27.457 	"/>
</g>
<g>
	<path fill="#27AAE1" d="M249.65,8.308l0.484-2.068h4.943c1.641,0,2.566,0.691,2.781,2.068h6.781
		c0.012-0.226,0.037-0.44,0.037-0.676c0-4.704-2.848-7.056-8.543-7.056h-11.328l-1.785,7.732H249.65z"/>
	<path fill="#27AAE1" d="M263.333,12.768c0.388-0.58,0.674-1.243,0.895-1.96h-6.605c-0.223,0.674-0.565,1.276-1.056,1.792
		c-0.896,0.944-2,1.416-3.312,1.416h-4.943l0.753-3.208h-6.618l-5.175,22.408h12.288c4.128,0,7.305-1.057,9.527-3.168
		c2.225-2.111,3.336-4.768,3.336-7.969c0-1.312-0.209-2.399-0.623-3.264c-0.418-0.863-1.248-1.664-2.496-2.4
		C261.093,15.328,262.439,14.112,263.333,12.768z M254.311,26.063c-0.864,0.992-2.017,1.487-3.456,1.487h-5.664l1.872-8.016h5.424
		c2.08,0,3.12,0.896,3.12,2.688C255.607,23.792,255.175,25.072,254.311,26.063z"/>
</g>
<g>
	<polygon fill="#C1E1F4" points="229.394,8.308 231.175,0.576 224.55,0.576 222.766,8.308 	"/>
	<polygon fill="#C1E1F4" points="228.818,10.808 222.189,10.808 217.015,33.216 234.007,33.216 235.302,27.457 224.983,27.457 	"/>
</g>
<g>
	<polygon fill="#C1E1F4" points="212.744,19.776 214.087,14.016 204.201,14.016 204.942,10.808 198.3,10.808 193.16,33.216 
		212.36,33.216 213.656,27.457 201.126,27.457 202.904,19.776 	"/>
	<polygon fill="#C1E1F4" points="205.519,8.308 205.975,6.336 218.457,6.336 219.798,0.576 200.648,0.576 198.875,8.308 	"/>
</g>
<g>
	<polygon fill="#C1E1F4" points="173.978,8.308 174.25,7.152 174.826,7.152 174.917,8.308 180.483,8.308 179.96,0.576 
		169.449,0.576 167.664,8.308 	"/>
	<polygon fill="#C1E1F4" points="192.671,8.308 194.457,0.576 188.074,0.576 186.317,8.308 	"/>
	<polygon fill="#C1E1F4" points="167.086,10.808 161.913,33.216 168.153,33.216 173.393,10.808 	"/>
	<polygon fill="#C1E1F4" points="185.75,10.808 182.264,26.16 181.689,26.16 180.652,10.808 175.121,10.808 176.936,33.216 
		186.919,33.216 192.093,10.808 	"/>
</g>
<g>
	<polygon fill="#C1E1F4" points="161.423,8.308 163.208,0.576 156.584,0.576 154.799,8.308 	"/>
	<polygon fill="#C1E1F4" points="154.222,10.808 149.048,33.216 155.672,33.216 160.846,10.808 	"/>
</g>
<g>
	<polygon fill="#C1E1F4" points="137.364,8.308 143.988,8.308 144.442,6.336 151.69,6.336 153.034,0.576 132.009,0.576 
		130.666,6.336 137.818,6.336 	"/>
	<polygon fill="#C1E1F4" points="136.788,10.808 131.625,33.216 138.25,33.216 143.412,10.808 	"/>
</g>
<g>
	<polygon fill="#C1E1F4" points="119.75,10.808 116.265,26.16 115.69,26.16 114.653,10.808 109.122,10.808 110.937,33.216 
		120.921,33.216 126.095,10.808 	"/>
	<polygon fill="#C1E1F4" points="107.979,8.308 108.25,7.152 108.826,7.152 108.919,8.308 114.484,8.308 113.961,0.576 
		103.45,0.576 101.665,8.308 	"/>
	<polygon fill="#C1E1F4" points="126.672,8.308 128.458,0.576 122.074,0.576 120.319,8.308 	"/>
	<polygon fill="#C1E1F4" points="101.087,10.808 95.914,33.216 102.154,33.216 107.395,10.808 	"/>
</g>
<g>
	<polygon fill="#C1E1F4" points="84.417,8.308 84.874,6.336 97.354,6.336 98.698,0.576 79.546,0.576 77.772,8.308 	"/>
	<polygon fill="#C1E1F4" points="91.642,19.776 92.986,14.016 83.098,14.016 83.84,10.808 77.199,10.808 72.058,33.216 
		91.258,33.216 92.554,27.457 80.026,27.457 81.802,19.776 	"/>
</g>
<g>
	<path fill="#C1E1F4" d="M63.898,14.304c-2.304-1.022-3.712-1.783-4.224-2.28c-0.306-0.296-0.509-0.71-0.632-1.216h-6.851
		c0.016,2.06,0.475,3.677,1.387,4.84c0.928,1.184,2.479,2.271,4.655,3.264c2.176,0.994,3.544,1.736,4.104,2.232
		s0.84,1.208,0.84,2.137c0,1.727-0.479,2.951-1.44,3.672c-0.96,0.719-2.472,1.08-4.535,1.08c-2.064,0-4.904-0.32-8.521-0.961
		l-1.104,4.752l1.344,0.528c0.928,0.319,2.224,0.64,3.888,0.959s3.248,0.479,4.752,0.479c3.775,0,6.775-0.977,9-2.928
		c2.224-1.951,3.336-4.736,3.336-8.354c0-2.176-0.424-3.832-1.271-4.967C67.778,16.408,66.203,15.328,63.898,14.304z"/>
	<path fill="#C1E1F4" d="M59.157,8.308c0.2-0.535,0.516-1.028,0.974-1.468c0.815-0.784,1.928-1.176,3.336-1.176
		c2.239,0,5.119,0.288,8.64,0.864l1.2-4.704l-1.344-0.48c-0.896-0.288-2.185-0.583-3.864-0.888C66.42,0.151,64.81,0,63.274,0
		c-3.359,0-6.048,1.008-8.063,3.024c-1.471,1.471-2.399,3.234-2.797,5.284H59.157z"/>
</g>
<circle fill="#FFD100" cx="13.275" cy="28.849" r="4.71"/>
<circle fill="#FFD100" cx="21.444" cy="16.896" r="4.71"/>
<circle fill="#FFD100" cx="4.959" cy="16.896" r="4.71"/>
<circle fill="#FFD100" cx="13.275" cy="4.942" r="4.709"/>
<circle fill="#FFD100" cx="37.928" cy="16.896" r="4.71"/>
<circle fill="#FFD100" cx="29.613" cy="28.849" r="4.71"/>
<circle fill="#FFD100" cx="29.612" cy="4.942" r="4.709"/>
</svg>
