<?xml version="1.0" encoding="utf-8"?>
<!-- Generator: Adobe Illustrator 15.1.0, SVG Export Plug-In . SVG Version: 6.00 Build 0)  -->
<!DOCTYPE svg PUBLIC "-//W3C//DTD SVG 1.1//EN" "http://www.w3.org/Graphics/SVG/1.1/DTD/svg11.dtd">
<svg version="1.1" id="Layer_1" xmlns="http://www.w3.org/2000/svg" xmlns:xlink="http://www.w3.org/1999/xlink" x="0px" y="0px"
	 width="600px" height="600px" viewBox="-268 -268 600 600" enable-background="new -268 -268 600 600" xml:space="preserve">
<g>
	<path fill="#FFFFFF" d="M177,132H37c-22.07,0-40,17.93-40,40s17.93,40,40,40h140c22.07,0,40-17.93,40-40S199.07,132,177,132z"/>
	<path fill="#FFFFFF" d="M177-8H37C14.93-8-3,9.939-3,32c0,22.07,17.93,40,40,40h140c22.07,0,40-17.93,40-40
		C217,9.939,199.07-8,177-8z"/>
	<path fill="#FFFFFF" d="M177-148H37c-22.07,0-40,17.939-40,40s17.93,40,40,40h140c22.07,0,40-17.939,40-40S199.07-148,177-148z"/>
	<path fill="#FFFFFF" d="M-103,122c27.617,0,50,22.383,50,50s-22.383,50-50,50s-50-22.383-50-50S-130.617,122-103,122z"/>
	<path fill="#FFFFFF" d="M-103-18c27.617,0,50,22.383,50,50s-22.383,50-50,50s-50-22.383-50-50S-130.617-18-103-18z"/>
	<path fill="#FFFFFF" d="M-103-158c27.617,0,50,22.383,50,50s-22.383,50-50,50s-50-22.383-50-50S-130.617-158-103-158z"/>
</g>
</svg>
