<?xml version="1.0" encoding="utf-8"?>
<!-- Generator: Adobe Illustrator 15.1.0, SVG Export Plug-In . SVG Version: 6.00 Build 0)  -->
<!DOCTYPE svg PUBLIC "-//W3C//DTD SVG 1.1//EN" "http://www.w3.org/Graphics/SVG/1.1/DTD/svg11.dtd">
<svg version="1.1" id="Layer_3" xmlns="http://www.w3.org/2000/svg" xmlns:xlink="http://www.w3.org/1999/xlink" x="0px" y="0px"
	 width="600px" height="600px" viewBox="0 0 600 600" enable-background="new 0 0 600 600" xml:space="preserve">
<g>
	<path fill="#FFFFFF" d="M319.194,246.391l159.091,159.102c10.121,10.117,10.121,26.527,0,36.644
		c-10.116,10.115-26.528,10.115-36.646,0L300.875,301.364L160.107,442.14c-10.121,10.116-26.526,10.116-36.643,0
		c-10.121-10.116-10.121-26.521,0-36.647l159.094-159.097c5.056-5.049,11.687-7.575,18.316-7.575
		C307.506,238.82,314.138,241.337,319.194,246.391z"/>
	<path fill="#FFFFFF" d="M462.375,198.273h-324.75c-13.255,0-24-10.745-24-24s10.745-24,24-24h324.75c13.255,0,24,10.745,24,24
		S475.63,198.273,462.375,198.273z"/>
</g>
</svg>
